<svg width="1600" height="920" viewBox="0 0 1600 920" fill="none" xmlns="http://www.w3.org/2000/svg">
  <defs>
    <linearGradient id="bg" x1="0" y1="0" x2="1600" y2="920" gradientUnits="userSpaceOnUse">
      <stop stop-color="#FFFDF9"/>
      <stop offset="1" stop-color="#FFF7EE"/>
    </linearGradient>
    <radialGradient id="glow-left" cx="0" cy="0" r="1" gradientUnits="userSpaceOnUse" gradientTransform="translate(400 250) rotate(15) scale(520 460)">
      <stop stop-color="#FFF5E8"/>
      <stop offset="1" stop-color="#FFF5E8" stop-opacity="0"/>
    </radialGradient>
    <radialGradient id="glow-core" cx="0" cy="0" r="1" gradientUnits="userSpaceOnUse" gradientTransform="translate(1110 430) rotate(90) scale(320 320)">
      <stop stop-color="#FFE0BC"/>
      <stop offset="1" stop-color="#FFE0BC" stop-opacity="0"/>
    </radialGradient>
    <linearGradient id="chip-face" x1="1000" y1="300" x2="1220" y2="520" gradientUnits="userSpaceOnUse">
      <stop stop-color="#FFFFFF"/>
      <stop offset="1" stop-color="#FFF1DF"/>
    </linearGradient>
    <linearGradient id="chip-layer" x1="1015" y1="400" x2="1205" y2="560" gradientUnits="userSpaceOnUse">
      <stop stop-color="#FFD5AA"/>
      <stop offset="1" stop-color="#FFB35C"/>
    </linearGradient>
    <filter id="soft-shadow" x="-100" y="-100" width="1800" height="1200" filterUnits="userSpaceOnUse" color-interpolation-filters="sRGB">
      <feDropShadow dx="0" dy="24" stdDeviation="30" flood-color="#F7B062" flood-opacity="0.22"/>
    </filter>
    <filter id="card-shadow" x="-50" y="-50" width="600" height="500" filterUnits="userSpaceOnUse" color-interpolation-filters="sRGB">
      <feDropShadow dx="0" dy="16" stdDeviation="18" flood-color="#E8B37D" flood-opacity="0.18"/>
    </filter>
    <style>
      .label { font: 700 22px Arial, sans-serif; fill: #FF9A33; }
      .item { font: 500 20px Arial, sans-serif; fill: #5B4B39; }
      .title { font: 700 22px Arial, sans-serif; fill: #6B5A47; }
      .small { font: 500 18px Arial, sans-serif; fill: #5B4B39; }
    </style>
  </defs>
  <rect width="1600" height="920" fill="url(#bg)"/>
  <rect width="1600" height="920" fill="url(#glow-left)"/>
  <rect width="1600" height="920" fill="url(#glow-core)"/>
  <g opacity="0.26">
    <circle cx="1112" cy="292" r="188" stroke="#F5D9B8"/>
    <circle cx="1112" cy="292" r="128" stroke="#F5D9B8"/>
    <circle cx="1112" cy="292" r="86" stroke="#F5D9B8"/>
  </g>
  <g opacity="0.26">
    <ellipse cx="1110" cy="772" rx="236" ry="72" stroke="#F5D9B8"/>
    <ellipse cx="1110" cy="772" rx="188" ry="54" stroke="#F5D9B8"/>
    <ellipse cx="1110" cy="772" rx="142" ry="40" stroke="#F5D9B8"/>
  </g>
  <g filter="url(#card-shadow)">
    <rect x="741" y="196" width="182" height="322" rx="22" fill="#FFFDFB" stroke="#F2D9BD"/>
    <text x="770" y="246" class="label">INPUT</text>
    <line x1="768" y1="280" x2="890" y2="280" stroke="#F2D9BD"/>
    <g transform="translate(770 315)">
      <rect x="0" y="-18" width="24" height="24" rx="4" stroke="#7A6957" stroke-width="2"/>
      <line x1="6" y1="-8" x2="18" y2="-8" stroke="#7A6957" stroke-width="2"/>
      <line x1="6" y1="-2" x2="18" y2="-2" stroke="#7A6957" stroke-width="2"/>
      <line x1="6" y1="4" x2="12" y2="4" stroke="#7A6957" stroke-width="2"/>
      <text x="44" y="4" class="item">Data</text>
    </g>
    <g transform="translate(770 376)">
      <rect x="0" y="-18" width="24" height="24" rx="4" stroke="#7A6957" stroke-width="2"/>
      <line x1="6" y1="-7" x2="18" y2="-7" stroke="#7A6957" stroke-width="2"/>
      <line x1="6" y1="-1" x2="18" y2="-1" stroke="#7A6957" stroke-width="2"/>
      <text x="44" y="4" class="item">Forms</text>
    </g>
    <g transform="translate(770 437)">
      <rect x="0" y="-18" width="24" height="24" rx="4" stroke="#7A6957" stroke-width="2"/>
      <line x1="5" y1="-12" x2="19" y2="-12" stroke="#7A6957" stroke-width="2"/>
      <line x1="5" y1="-4" x2="19" y2="-4" stroke="#7A6957" stroke-width="2"/>
      <line x1="8" y1="-18" x2="8" y2="-12" stroke="#7A6957" stroke-width="2"/>
      <line x1="16" y1="-18" x2="16" y2="-12" stroke="#7A6957" stroke-width="2"/>
      <text x="44" y="4" class="item">Events</text>
    </g>
    <g transform="translate(770 498)">
      <path d="M5 0L11 -6M19 0L13 -6M5 -12L11 -6M19 -12L13 -6" stroke="#7A6957" stroke-width="2" stroke-linecap="round"/>
      <text x="44" y="-2" class="item">APIs</text>
    </g>
  </g>
  <g filter="url(#card-shadow)">
    <rect x="1343" y="216" width="182" height="302" rx="22" fill="#FFFDFB" stroke="#F2D9BD"/>
    <text x="1368" y="266" class="label">AUTOMATION</text>
    <g transform="translate(1370 326)">
      <circle cx="0" cy="0" r="5" stroke="#7A6957" stroke-width="2"/>
      <circle cx="24" cy="-18" r="5" stroke="#7A6957" stroke-width="2"/>
      <circle cx="24" cy="18" r="5" stroke="#7A6957" stroke-width="2"/>
      <line x1="5" y1="-3" x2="19" y2="-15" stroke="#7A6957" stroke-width="2"/>
      <line x1="5" y1="3" x2="19" y2="15" stroke="#7A6957" stroke-width="2"/>
      <text x="52" y="7" class="item">Workflows</text>
    </g>
    <g transform="translate(1370 388)">
      <path d="M0 0C0 -8 8 -14 16 -14C24 -14 32 -8 32 0C32 8 24 14 16 14C8 14 0 8 0 0Z" stroke="#7A6957" stroke-width="2"/>
      <line x1="28" y1="10" x2="40" y2="22" stroke="#7A6957" stroke-width="2"/>
      <text x="52" y="7" class="item">Integrations</text>
    </g>
    <g transform="translate(1370 450)">
      <path d="M4 0C4 -10 12 -18 22 -18C32 -18 40 -10 40 0C40 10 32 18 22 18C12 18 4 10 4 0Z" stroke="#7A6957" stroke-width="2"/>
      <path d="M22 -12V12M14 -4H30M15 4H29" stroke="#7A6957" stroke-width="2"/>
      <text x="52" y="7" class="item">AI Logic</text>
    </g>
    <g transform="translate(1370 512)">
      <rect x="0" y="-16" width="24" height="24" rx="4" stroke="#7A6957" stroke-width="2"/>
      <path d="M6 -4L10 0L18 -8" stroke="#7A6957" stroke-width="2" stroke-linecap="round" stroke-linejoin="round"/>
      <text x="52" y="2" class="item">Tasks</text>
    </g>
  </g>
  <g opacity="0.65">
    <path d="M922 359H972C988 359 1000 371 1000 387V402" stroke="#FFAE5A" stroke-width="4" stroke-linecap="round"/>
    <path d="M1343 382H1292C1276 382 1264 394 1264 410V420" stroke="#FFAE5A" stroke-width="4" stroke-linecap="round"/>
    <circle cx="923" cy="359" r="7" fill="#FFAE5A"/>
    <circle cx="1000" cy="402" r="7" fill="#FFAE5A"/>
    <circle cx="1292" cy="382" r="7" fill="#FFAE5A"/>
    <circle cx="1264" cy="420" r="7" fill="#FFAE5A"/>
  </g>
  <g transform="translate(1042 88)">
    <circle cx="70" cy="70" r="60" fill="#FFFDFB" stroke="#F2D9BD"/>
    <path d="M53 48C44 55 40 66 40 78C40 90 44 101 53 108M87 48C96 55 100 66 100 78C100 90 96 101 87 108M54 52C61 55 66 61 70 69C74 61 79 55 86 52M54 104C61 101 66 95 70 87C74 95 79 101 86 104M70 44V112" stroke="#8A5A2E" stroke-width="4" stroke-linecap="round" stroke-linejoin="round"/>
    <circle cx="58" cy="70" r="4" fill="#FF9A33"/>
    <circle cx="82" cy="70" r="4" fill="#FF9A33"/>
    <text x="17" y="165" class="title">AI LOGIC</text>
  </g>
  <g filter="url(#soft-shadow)">
    <path d="M1022 378L1112 316L1202 378L1112 440L1022 378Z" fill="url(#chip-face)"/>
    <path d="M1022 378L1112 316L1202 378L1112 440L1022 378Z" stroke="#F3D7B6"/>
    <path d="M1035 406L1112 353L1189 406L1112 459L1035 406Z" fill="url(#chip-layer)" opacity="0.42"/>
    <path d="M1047 435L1112 390L1177 435L1112 480L1047 435Z" fill="url(#chip-layer)" opacity="0.68"/>
    <path d="M1060 462L1112 426L1164 462L1112 498L1060 462Z" fill="url(#chip-layer)"/>
    <text x="1082" y="396" transform="rotate(-35 1082 396)" style="font:700 72px Arial,sans-serif; fill:#FF9A33;">AI</text>
  </g>
  <g opacity="0.65">
    <path d="M999 516L968 544C952 559 944 580 944 602V711" stroke="#FFAE5A" stroke-width="4" stroke-linecap="round"/>
    <path d="M1225 517L1262 548C1277 561 1286 579 1286 599V711" stroke="#FFAE5A" stroke-width="4" stroke-linecap="round"/>
    <path d="M1112 500V686" stroke="#FFAE5A" stroke-width="4" stroke-linecap="round"/>
    <circle cx="944" cy="711" r="7" fill="#FFAE5A"/>
    <circle cx="1286" cy="711" r="7" fill="#FFAE5A"/>
    <circle cx="1112" cy="686" r="7" fill="#FFAE5A"/>
  </g>
  <g filter="url(#card-shadow)">
    <rect x="943" y="640" width="336" height="170" rx="24" fill="#FFFDFB" stroke="#F2D9BD"/>
    <text x="1066" y="679" class="label">RESULTS</text>
    <g transform="translate(985 742)">
      <line x1="0" y1="0" x2="0" y2="-26" stroke="#7A6957" stroke-width="3"/>
      <line x1="13" y1="0" x2="13" y2="-40" stroke="#7A6957" stroke-width="3"/>
      <line x1="26" y1="0" x2="26" y2="-18" stroke="#7A6957" stroke-width="3"/>
      <line x1="-5" y1="0" x2="31" y2="0" stroke="#7A6957" stroke-width="2"/>
      <text x="-12" y="32" class="small">Reports</text>
    </g>
    <g transform="translate(1075 742)">
      <path d="M0 -34L24 -17L0 0V-34Z" stroke="#7A6957" stroke-width="3" stroke-linejoin="round"/>
      <text x="-12" y="32" class="small">Actions</text>
    </g>
    <g transform="translate(1167 742)">
      <circle cx="0" cy="-17" r="18" stroke="#7A6957" stroke-width="3"/>
      <path d="M0 -17V-33M0 -17L12 -5" stroke="#7A6957" stroke-width="3" stroke-linecap="round"/>
      <text x="-15" y="32" class="small">Insights</text>
    </g>
    <g transform="translate(1260 742)">
      <path d="M0 -9C0 -24 8 -34 20 -34C32 -34 40 -24 40 -9V3H0V-9Z" stroke="#7A6957" stroke-width="3"/>
      <path d="M16 11C18 15 22 17 26 17C30 17 34 15 36 11" stroke="#7A6957" stroke-width="3" stroke-linecap="round"/>
      <text x="-18" y="32" class="small">Notifications</text>
    </g>
  </g>
</svg>
